<?xml version="1.0" encoding="UTF-8" standalone="no"?>
<!-- Created with Inkscape (http://www.inkscape.org/) -->

<svg
   version="1.1"
   id="svg43543"
   width="800"
   height="800"
   viewBox="0 0 800 800"
   sodipodi:docname="rain-in-the-city-publicdomain.svg"
   inkscape:version="1.2 (dc2aedaf03, 2022-05-15)"
   xmlns:inkscape="http://www.inkscape.org/namespaces/inkscape"
   xmlns:sodipodi="http://sodipodi.sourceforge.net/DTD/sodipodi-0.dtd"
   xmlns="http://www.w3.org/2000/svg"
   xmlns:svg="http://www.w3.org/2000/svg">
  <defs
     id="defs43547">
    <clipPath
       clipPathUnits="userSpaceOnUse"
       id="clipPath43561">
      <path
         d="M 0,600 H 600 V 0 H 0 Z"
         id="path43559" />
    </clipPath>
  </defs>
  <sodipodi:namedview
     id="namedview43545"
     pagecolor="#ffffff"
     bordercolor="#000000"
     borderopacity="0.25"
     inkscape:showpageshadow="2"
     inkscape:pageopacity="0.0"
     inkscape:pagecheckerboard="0"
     inkscape:deskcolor="#d1d1d1"
     showgrid="false"
     inkscape:zoom="1.04625"
     inkscape:cx="400"
     inkscape:cy="400.4779"
     inkscape:window-width="1920"
     inkscape:window-height="1017"
     inkscape:window-x="-8"
     inkscape:window-y="-8"
     inkscape:window-maximized="1"
     inkscape:current-layer="g43551">
    <inkscape:page
       x="0"
       y="0"
       id="page43549"
       width="800"
       height="800" />
  </sodipodi:namedview>
  <g
     id="g43551"
     inkscape:groupmode="layer"
     inkscape:label="Page 1"
     transform="matrix(1.3333333,0,0,-1.3333333,0,800)">
    <path
       d="M 0,0.177 H 599.82 V 600 H 0 Z"
       style="fill:#b0c6de;fill-opacity:1;fill-rule:nonzero;stroke:none"
       id="path43553" />
    <g
       id="g43555">
      <g
         id="g43557"
         clip-path="url(#clipPath43561)">
        <g
           id="g43563"
           transform="translate(599.8203,567.6436)">
          <path
             d="m 0,0 v -73.833 c -6.817,-4.374 -14.928,-6.911 -23.632,-6.911 -10.101,0 -19.403,3.418 -26.813,9.159 -6.366,-3.82 -13.818,-6.019 -21.783,-6.019 -13.548,0 -25.61,6.355 -33.371,16.246 -5.173,-7.445 -13.788,-12.321 -23.542,-12.321 -6.102,0 -11.759,1.909 -16.408,5.162 -6.468,-6.119 -15.199,-9.872 -24.806,-9.872 -0.109,0 -0.216,0.003 -0.327,0.004 1.726,-3.971 2.681,-8.352 2.681,-12.957 0,-17.993 -14.586,-32.579 -32.578,-32.579 -17.992,0 -32.577,14.586 -32.577,32.579 0,0.966 0.045,1.923 0.127,2.868 -1.078,-0.079 -2.168,-0.12 -3.267,-0.12 -7.772,0 -15.071,2.019 -21.405,5.558 -8.352,-10.107 -20.982,-16.548 -35.116,-16.548 -12.23,0 -23.334,4.824 -31.512,12.671 -5.803,-7.696 -15.021,-12.672 -25.402,-12.672 -4.076,0 -7.972,0.768 -11.554,2.166 -6.522,-9.374 -17.374,-15.51 -29.658,-15.51 -18.746,0 -34.154,14.284 -35.937,32.561 -2.788,-0.756 -5.72,-1.161 -8.747,-1.161 -7.12,0 -13.717,2.233 -19.133,6.034 -6.479,-6.17 -15.248,-9.959 -24.901,-9.959 -5.454,0 -10.625,1.212 -15.261,3.377 -4.929,-12.549 -17.151,-21.433 -31.449,-21.433 -18.653,0 -33.775,15.122 -33.775,33.776 0,1.712 0.128,3.395 0.374,5.039 -5.244,-3.208 -11.408,-5.059 -18.005,-5.059 -8.38,0 -16.062,2.984 -22.043,7.948 v 53.184 c 5.981,4.964 13.663,7.949 22.043,7.949 18.963,0 34.355,-15.283 34.537,-34.203 2.975,12.414 14.142,21.643 27.469,21.643 6.311,0 12.138,-2.071 16.841,-5.568 5.576,3.525 12.184,5.568 19.269,5.568 8.971,0 17.177,-3.273 23.492,-8.688 5.662,4.435 12.792,7.079 20.542,7.079 16.54,0 30.265,-12.044 32.889,-27.839 1.612,0.557 3.276,1.003 4.982,1.329 -0.165,1.239 -0.253,2.501 -0.253,3.784 0,15.607 12.653,28.259 28.26,28.259 12.702,0 23.447,-8.379 27.007,-19.911 5.581,6.801 13.828,11.329 23.145,11.988 7.516,5.476 16.77,8.708 26.78,8.708 8.735,0 16.894,-2.461 23.826,-6.726 8.047,8.949 19.712,14.577 32.695,14.577 15.483,0 29.097,-8.008 36.928,-20.104 6.58,8.864 17.126,14.608 29.013,14.608 11.333,0 21.448,-5.223 28.067,-13.393 3.937,2.037 8.407,3.188 13.147,3.188 6.235,0 12.002,-1.992 16.707,-5.374 5.627,16.811 21.501,28.925 40.206,28.925 9.026,0 17.392,-2.825 24.269,-7.634 6.961,4.654 15.327,7.369 24.327,7.369 C -14.928,6.912 -6.817,4.375 0,0"
             style="fill:#5b738b;fill-opacity:1;fill-rule:evenodd;stroke:none"
             id="path43565" />
        </g>
        <g
           id="g43567"
           transform="translate(0,600)">
          <path
             d="m 0,0 h 599.82 v -72.266 c -19.538,0.426 -36.449,11.507 -45.156,27.665 -6.735,-6.825 -16.094,-11.057 -26.437,-11.057 -0.217,0 -0.435,0.003 -0.652,0.006 -4.732,-3.07 -10.378,-4.854 -16.439,-4.854 -1.937,0 -3.83,0.184 -5.667,0.532 -3.149,-11.614 -13.764,-20.157 -26.375,-20.157 -8.029,0 -15.247,3.462 -20.246,8.974 -7.247,-6.553 -16.853,-10.544 -27.391,-10.544 -3.667,0 -7.222,0.487 -10.603,1.393 -2.356,-15.456 -15.703,-27.298 -31.817,-27.298 -14.604,0 -26.935,9.728 -30.87,23.057 -12.077,4.866 -22.155,13.648 -28.664,24.771 -6.879,-9.926 -18.349,-16.428 -31.339,-16.428 -9.633,0 -18.429,3.576 -25.138,9.47 -6.074,-3.044 -12.931,-4.76 -20.189,-4.76 -3.761,0 -7.415,0.463 -10.909,1.331 -6.751,-18.632 -24.604,-31.946 -45.568,-31.946 -18.635,0 -34.81,10.522 -42.917,25.946 -4.927,-1.554 -10.169,-2.395 -15.61,-2.395 -17.248,0 -32.525,8.43 -41.942,21.393 -6.59,-11.382 -18.899,-19.039 -32.996,-19.039 -17.655,0 -32.502,12.007 -36.828,28.298 -3.514,-1.044 -7.235,-1.608 -11.088,-1.608 -5.31,0 -10.369,1.067 -14.979,2.994 z"
             style="fill:#7a92a8;fill-opacity:1;fill-rule:evenodd;stroke:none"
             id="path43569" />
        </g>
        <g
           id="g43571"
           transform="translate(599.8203,391.125)">
          <path
             d="m 0,0 v -188.402 h -20.417 v -8.637 h -55.735 v -27.476 h -88.122 v -38.464 h -99.498 v 4.71 h -49.456 v 52.595 h -40.036 v 6.281 h -8.444 v -41.024 h -76.337 v 0.202 h -98.912 v 47.101 h -22.765 V -292.81 H -599.82 V 18.84 h 5.558 v -36.896 h 11.775 v -43.176 h 7.065 v -44.745 h 38.465 v 36.895 h 26.691 v 18.056 h 29.045 v 23.551 h 36.896 v -23.551 h 10.99 v -18.056 h 16.486 v -51.811 h 28.26 v 30.617 h 35.325 v 44.744 h 18.841 v 13.346 h 20.41 v -13.346 h 14.916 v -58.875 h 35.325 v 25.121 h 25.121 v 18.84 h 10.205 v 30.615 h 19.625 v -30.615 h 10.205 v -18.84 h 9.421 v 15.701 h 11.775 v -15.701 h 13.146 v -23.551 h 45.73 v 30.616 h 19.232 v 17.664 h 45.922 v 7.456 h 26.692 V 0 Z"
             style="fill:#7a92a8;fill-opacity:1;fill-rule:evenodd;stroke:none"
             id="path43573" />
        </g>
        <g
           id="g43575"
           transform="translate(599.8203,239.2246)">
          <path
             d="m 0,0 v -239.047 h -599.82 v 136.21 h 8.498 v 31.401 h 18.84 v 47.101 h 24.727 v 15.111 h 19.822 v -15.111 h 4.907 v -25.12 h 29.83 V -6.28 h 9.616 V 3.925 h 7.654 V 33.56 h 12.757 V 3.925 h 4.514 V -6.28 h 17.662 v -33.756 h 45.138 v 34.541 h 25.122 v 32.184 h 8.635 v 13.346 h 26.69 V 26.689 h 18.841 V -5.495 h 11.186 v 22.177 h 16.682 V -5.495 h 6.672 v -74.576 h 54.166 v 32.969 H -183.9 V 0.784 h 12.559 V 17.27 h 16.485 V 0.784 h 16.485 v -47.886 h 15.703 v 19.626 h 36.11 V 0 h 25.119 v 47.101 h 36.503 l 0,-47.101 z"
             style="fill:#5b738b;fill-opacity:1;fill-rule:evenodd;stroke:none"
             id="path43577" />
        </g>
        <g
           id="g43579"
           transform="translate(599.8203,136.9727)">
          <path
             d="M 0,0 V -136.795 H -599.82 V -10.99 h 21.843 v 33.754 h 14.13 V -10.99 h 22.765 v -98.914 h 10.991 v 50.241 h 27.475 v -50.241 h 22.765 v 39.253 h 28.261 v 53.38 h 10.597 v 40.428 h 16.877 v -40.428 h 25.906 V 6.278 h 12.167 v 7.457 h 24.335 V 6.278 h 18.841 v -23.549 h 20.019 v -98.912 h 34.54 v 45.532 h 22.373 v 23.547 h 5.495 v 12.563 h 25.906 v -12.563 h 15.307 v 28.263 h 21.589 V 3.531 h 20.409 v -22.372 h 12.955 v 61.23 h 23.549 V 81.64 h 50.24 V 42.389 h 26.69 v -142.871 h 29.832 l 0,100.482 z"
             style="fill:#3c495b;fill-opacity:1;fill-rule:evenodd;stroke:none"
             id="path43581" />
        </g>
        <g
           id="g43583"
           transform="translate(25.2427,405.8516)">
          <path
             d="M 0,0 C 0,0.512 0.415,0.927 0.927,0.927 1.438,0.927 1.854,0.512 1.854,0 v -20.018 c 0,-0.512 -0.416,-0.927 -0.927,-0.927 -0.512,0 -0.927,0.415 -0.927,0.927 z m -11.775,46.512 c 0,0.512 0.415,0.927 0.927,0.927 0.512,0 0.927,-0.415 0.927,-0.927 V 31.793 c 0,-0.512 -0.415,-0.927 -0.927,-0.927 -0.512,0 -0.927,0.415 -0.927,0.927 z M 1.373,80.268 c 0,0.512 0.416,0.927 0.927,0.927 0.513,0 0.928,-0.415 0.928,-0.927 V 62.212 c 0,-0.511 -0.415,-0.927 -0.928,-0.927 -0.511,0 -0.927,0.416 -0.927,0.927 z m 31.009,-3.926 c 0,0.512 0.416,0.928 0.927,0.928 0.512,0 0.927,-0.416 0.927,-0.928 v -26.69 c 0,-0.512 -0.415,-0.927 -0.927,-0.927 -0.511,0 -0.927,0.415 -0.927,0.927 z M 14.327,178.787 c 0,0.511 0.415,0.927 0.927,0.927 0.512,0 0.927,-0.416 0.927,-0.927 v -28.653 c 0,-0.513 -0.415,-0.927 -0.927,-0.927 -0.512,0 -0.927,0.414 -0.927,0.927 z m 41.213,-7.065 c 0,0.511 0.416,0.927 0.928,0.927 0.511,0 0.927,-0.416 0.927,-0.927 v -18.841 c 0,-0.512 -0.416,-0.927 -0.927,-0.927 -0.512,0 -0.928,0.415 -0.928,0.927 z m 60.446,10.205 c 0,0.511 0.415,0.927 0.927,0.927 0.512,0 0.927,-0.416 0.927,-0.927 v -20.41 c 0,-0.513 -0.415,-0.928 -0.927,-0.928 -0.512,0 -0.927,0.415 -0.927,0.928 z m 93.417,-15.308 c 0,0.512 0.415,0.927 0.927,0.927 0.512,0 0.927,-0.415 0.927,-0.927 v -18.056 c 0,-0.511 -0.415,-0.926 -0.927,-0.926 -0.512,0 -0.927,0.415 -0.927,0.926 z m 197.039,7.065 c 0,0.512 0.416,0.927 0.928,0.927 0.51,0 0.926,-0.415 0.926,-0.927 v -25.121 c 0,-0.511 -0.416,-0.926 -0.926,-0.926 -0.512,0 -0.928,0.415 -0.928,0.926 z m -25.12,4.317 c 0,0.512 0.414,0.928 0.925,0.928 0.514,0 0.928,-0.416 0.928,-0.928 v -18.054 c 0,-0.513 -0.414,-0.928 -0.928,-0.928 -0.511,0 -0.925,0.415 -0.925,0.928 z m -29.83,5.103 c 0,0.512 0.415,0.928 0.925,0.928 0.513,0 0.928,-0.416 0.928,-0.928 v -21.195 c 0,-0.512 -0.415,-0.928 -0.928,-0.928 -0.51,0 -0.925,0.416 -0.925,0.928 z m -49.457,-5.888 c 0,0.512 0.415,0.928 0.927,0.928 0.511,0 0.928,-0.416 0.928,-0.928 v -12.56 c 0,-0.511 -0.417,-0.927 -0.928,-0.927 -0.512,0 -0.927,0.416 -0.927,0.927 z m -64.764,-85.96 c 0,0.512 0.415,0.928 0.928,0.928 0.51,0 0.927,-0.416 0.927,-0.928 v -36.11 c 0,-0.512 -0.417,-0.928 -0.927,-0.928 -0.513,0 -0.928,0.416 -0.928,0.928 z M 204.3,8.83 c 0,0.512 0.416,0.927 0.927,0.927 0.512,0 0.928,-0.415 0.928,-0.927 V -21 c 0,-0.513 -0.416,-0.928 -0.928,-0.928 -0.511,0 -0.927,0.415 -0.927,0.928 z m 60.447,-339.125 c 0,0.511 0.415,0.925 0.927,0.925 0.511,0 0.928,-0.414 0.928,-0.925 v -29.831 c 0,-0.512 -0.417,-0.928 -0.928,-0.928 -0.512,0 -0.927,0.416 -0.927,0.928 z m 291.241,-9.422 c 0,0.512 0.414,0.928 0.925,0.928 0.513,0 0.927,-0.416 0.927,-0.928 v -33.754 c 0,-0.513 -0.414,-0.927 -0.927,-0.927 -0.511,0 -0.925,0.414 -0.925,0.927 z m -30.616,25.122 c 0,0.511 0.414,0.925 0.927,0.925 0.511,0 0.928,-0.414 0.928,-0.925 v -32.187 c 0,-0.511 -0.417,-0.928 -0.928,-0.928 -0.513,0 -0.927,0.417 -0.927,0.928 z m -62.017,-37.681 c 0,0.51 0.417,0.927 0.928,0.927 0.51,0 0.927,-0.417 0.927,-0.927 v -27.476 c 0,-0.511 -0.417,-0.928 -0.927,-0.928 -0.511,0 -0.928,0.417 -0.928,0.928 z m -135.808,6.281 c 0,0.511 0.415,0.925 0.928,0.925 0.511,0 0.926,-0.414 0.926,-0.925 v -36.898 c 0,-0.51 -0.415,-0.927 -0.926,-0.927 -0.513,0 -0.928,0.417 -0.928,0.927 z m -11.775,112.255 c 0,0.511 0.415,0.928 0.928,0.928 0.51,0 0.926,-0.417 0.926,-0.928 v -33.754 c 0,-0.514 -0.416,-0.928 -0.926,-0.928 -0.513,0 -0.928,0.414 -0.928,0.928 z m -197.823,-61.23 c 0,0.512 0.416,0.926 0.927,0.926 0.512,0 0.927,-0.414 0.927,-0.926 v -44.56 c 0,-0.514 -0.415,-0.928 -0.927,-0.928 -0.511,0 -0.927,0.414 -0.927,0.928 z m -5.495,101.266 c 0,0.513 0.415,0.928 0.927,0.928 0.512,0 0.928,-0.415 0.928,-0.928 v -32.186 c 0,-0.51 -0.416,-0.927 -0.928,-0.927 -0.512,0 -0.927,0.417 -0.927,0.927 z m -45.531,-37.68 c 0,0.511 0.415,0.928 0.927,0.928 0.512,0 0.927,-0.417 0.927,-0.928 v -23.557 c 0,-0.512 -0.415,-0.926 -0.927,-0.926 -0.512,0 -0.927,0.414 -0.927,0.926 z m 15.7,216.663 c 0,0.513 0.416,0.928 0.928,0.928 0.512,0 0.926,-0.415 0.926,-0.928 v -31.4 c 0,-0.512 -0.414,-0.927 -0.926,-0.927 -0.512,0 -0.928,0.415 -0.928,0.927 z m -32.185,-14.13 c 0,0.512 0.416,0.927 0.927,0.927 0.512,0 0.927,-0.415 0.927,-0.927 v -27.475 c 0,-0.512 -0.415,-0.928 -0.927,-0.928 -0.511,0 -0.927,0.416 -0.927,0.928 z m 34.541,-54.166 c 0,0.512 0.415,0.927 0.927,0.927 0.511,0 0.927,-0.415 0.927,-0.927 v -31.4 c 0,-0.513 -0.416,-0.928 -0.927,-0.928 -0.512,0 -0.927,0.415 -0.927,0.928 z m 40.035,-10.206 c 0,0.512 0.416,0.928 0.927,0.928 0.512,0 0.927,-0.416 0.927,-0.928 v -28.26 c 0,-0.51 -0.415,-0.927 -0.927,-0.927 -0.511,0 -0.927,0.417 -0.927,0.927 z m 121.677,-14.914 c 0,0.512 0.415,0.926 0.927,0.926 0.512,0 0.927,-0.414 0.927,-0.926 v -47.886 c 0,-0.512 -0.415,-0.927 -0.927,-0.927 -0.512,0 -0.927,0.415 -0.927,0.927 z m 1.571,-126.387 c 0,0.51 0.415,0.927 0.927,0.927 0.511,0 0.927,-0.417 0.927,-0.927 v -28.26 c 0,-0.514 -0.416,-0.928 -0.927,-0.928 -0.512,0 -0.927,0.414 -0.927,0.928 z m 108.331,62.015 c 0,0.513 0.415,0.928 0.928,0.928 0.511,0 0.926,-0.415 0.926,-0.928 v -22.764 c 0,-0.512 -0.415,-0.928 -0.926,-0.928 -0.513,0 -0.928,0.416 -0.928,0.928 z M 482.98,67.706 c 0,0.512 0.417,0.927 0.928,0.927 0.511,0 0.927,-0.415 0.927,-0.927 V 48.081 c 0,-0.512 -0.416,-0.928 -0.927,-0.928 -0.511,0 -0.928,0.416 -0.928,0.928 z m 3.141,-58.091 c 0,0.511 0.414,0.927 0.927,0.927 0.512,0 0.925,-0.416 0.925,-0.927 v -39.251 c 0,-0.511 -0.413,-0.927 -0.925,-0.927 -0.513,0 -0.927,0.416 -0.927,0.927 z M 426.46,-21.786 c 0,0.512 0.414,0.927 0.925,0.927 0.514,0 0.928,-0.415 0.928,-0.927 v -29.046 c 0,-0.511 -0.414,-0.926 -0.928,-0.926 -0.511,0 -0.925,0.415 -0.925,0.926 z M 125.014,45.725 c 0,0.512 0.416,0.927 0.927,0.927 0.512,0 0.927,-0.415 0.927,-0.927 V 27.67 c 0,-0.512 -0.415,-0.927 -0.927,-0.927 -0.511,0 -0.927,0.415 -0.927,0.927 z M 99.893,19.035 c 0,0.512 0.416,0.927 0.928,0.927 0.511,0 0.926,-0.415 0.926,-0.927 V -4.516 c 0,-0.511 -0.415,-0.927 -0.926,-0.927 -0.512,0 -0.928,0.416 -0.928,0.927 z m 85.567,12.56 c 0,0.512 0.416,0.927 0.927,0.927 0.512,0 0.927,-0.415 0.927,-0.927 V -0.59 c 0,-0.512 -0.415,-0.928 -0.927,-0.928 -0.511,0 -0.927,0.416 -0.927,0.928 z m 96.557,3.925 c 0,0.512 0.415,0.927 0.926,0.927 0.512,0 0.928,-0.415 0.928,-0.927 v -15.7 c 0,-0.512 -0.416,-0.928 -0.928,-0.928 -0.511,0 -0.926,0.416 -0.926,0.928 z m 15.7,-87.922 c 0,0.513 0.415,0.928 0.926,0.928 0.513,0 0.928,-0.415 0.928,-0.928 v -21.98 c 0,-0.511 -0.415,-0.928 -0.928,-0.928 -0.511,0 -0.926,0.417 -0.926,0.928 z m 47.885,-217.448 c 0,0.511 0.416,0.928 0.927,0.928 0.512,0 0.927,-0.417 0.927,-0.928 v -22.766 c 0,-0.511 -0.415,-0.927 -0.927,-0.927 -0.511,0 -0.927,0.416 -0.927,0.927 z m 28.261,68.298 c 0,0.511 0.414,0.925 0.927,0.925 0.511,0 0.925,-0.414 0.925,-0.925 v -29.832 c 0,-0.511 -0.414,-0.928 -0.925,-0.928 -0.513,0 -0.927,0.417 -0.927,0.928 z m 18.841,74.575 c 0,0.511 0.414,0.926 0.924,0.926 0.514,0 0.928,-0.415 0.928,-0.926 v -38.866 c 0,-0.511 -0.414,-0.926 -0.928,-0.926 -0.51,0 -0.924,0.415 -0.924,0.926 z m 36.894,39.251 c 0,0.511 0.417,0.928 0.928,0.928 0.512,0 0.928,-0.417 0.928,-0.928 v -46.316 c 0,-0.513 -0.416,-0.928 -0.928,-0.928 -0.511,0 -0.928,0.415 -0.928,0.928 z M 541.854,94.789 c 0,0.512 0.416,0.927 0.928,0.927 0.51,0 0.926,-0.415 0.926,-0.927 V 54.753 c 0,-0.512 -0.416,-0.927 -0.926,-0.927 -0.512,0 -0.928,0.415 -0.928,0.927 z m -10.988,61.624 c 0,0.511 0.414,0.926 0.925,0.926 0.513,0 0.927,-0.415 0.927,-0.926 v -41.606 c 0,-0.512 -0.414,-0.928 -0.927,-0.928 -0.511,0 -0.925,0.416 -0.925,0.928 z m -81.251,9.812 c 0,0.512 0.417,0.927 0.927,0.927 0.511,0 0.928,-0.415 0.928,-0.927 v -58.876 c 0,-0.512 -0.417,-0.927 -0.928,-0.927 -0.51,0 -0.927,0.415 -0.927,0.927 z m 40.216,1.14 c 0,0.512 0.416,0.927 0.928,0.927 0.511,0 0.928,-0.415 0.928,-0.927 v -40.783 c 0,-0.512 -0.417,-0.927 -0.928,-0.927 -0.512,0 -0.928,0.415 -0.928,0.927 z M 356.984,-4.515 c 0,0.511 0.415,0.927 0.928,0.927 0.51,0 0.926,-0.416 0.926,-0.927 v -36.111 c 0,-0.512 -0.416,-0.927 -0.926,-0.927 -0.513,0 -0.928,0.415 -0.928,0.927 z m 28.651,53.38 c 0,0.512 0.417,0.927 0.928,0.927 0.514,0 0.928,-0.415 0.928,-0.927 V 3.335 c 0,-0.512 -0.414,-0.928 -0.928,-0.928 -0.511,0 -0.928,0.416 -0.928,0.928 z m -22.763,59.661 c 0,0.512 0.415,0.928 0.927,0.928 0.511,0 0.927,-0.416 0.927,-0.928 v -40.82 c 0,-0.512 -0.416,-0.927 -0.927,-0.927 -0.512,0 -0.927,0.415 -0.927,0.927 z m 28.766,45.175 c 0,0.511 0.414,0.926 0.928,0.926 0.511,0 0.925,-0.415 0.925,-0.926 v -32.222 c 0,-0.512 -0.414,-0.927 -0.925,-0.927 -0.514,0 -0.928,0.415 -0.928,0.927 z m -349.051,6.636 c 0,0.512 0.415,0.928 0.927,0.928 0.512,0 0.927,-0.416 0.927,-0.928 v -56.913 c 0,-0.512 -0.415,-0.928 -0.927,-0.928 -0.512,0 -0.927,0.416 -0.927,0.928 z m 249.635,-50.241 c 0,0.512 0.414,0.927 0.926,0.927 0.513,0 0.928,-0.415 0.928,-0.927 V 39.445 c 0,-0.511 -0.415,-0.927 -0.928,-0.927 -0.512,0 -0.926,0.416 -0.926,0.927 z m -19.235,34.934 c 0,0.511 0.417,0.927 0.928,0.927 0.512,0 0.928,-0.416 0.928,-0.927 V 94.788 c 0,-0.512 -0.416,-0.927 -0.928,-0.927 -0.511,0 -0.928,0.415 -0.928,0.927 z m -47.492,21.195 c 0,0.512 0.415,0.927 0.927,0.927 0.512,0 0.927,-0.415 0.927,-0.927 v -63.586 c 0,-0.513 -0.415,-0.928 -0.927,-0.928 -0.512,0 -0.927,0.415 -0.927,0.928 z m -74.969,-4.318 c 0,0.512 0.415,0.927 0.928,0.927 0.511,0 0.926,-0.415 0.926,-0.927 v -35.325 c 0,-0.512 -0.415,-0.928 -0.926,-0.928 -0.513,0 -0.928,0.416 -0.928,0.928 z m -19.625,-57.699 c 0,0.512 0.415,0.928 0.927,0.928 0.512,0 0.927,-0.416 0.927,-0.928 V 59.855 c 0,-0.512 -0.415,-0.927 -0.927,-0.927 -0.512,0 -0.927,0.415 -0.927,0.927 z M 97.145,71.631 c 0,0.511 0.416,0.927 0.927,0.927 0.512,0 0.928,-0.416 0.928,-0.927 V 38.267 c 0,-0.511 -0.416,-0.927 -0.928,-0.927 -0.511,0 -0.927,0.416 -0.927,0.927 z m -5.441,76.857 c 0,0.511 0.416,0.927 0.927,0.927 0.512,0 0.927,-0.416 0.927,-0.927 v -38.784 c 0,-0.512 -0.415,-0.928 -0.927,-0.928 -0.511,0 -0.927,0.416 -0.927,0.928 z M -11.973,-137.183 c 0,0.512 0.416,0.928 0.928,0.928 0.512,0 0.927,-0.416 0.927,-0.928 v -56.521 c 0,-0.511 -0.415,-0.926 -0.927,-0.926 -0.512,0 -0.928,0.415 -0.928,0.926 z M 28.848,-8.441 c 0,0.512 0.416,0.927 0.928,0.927 0.512,0 0.927,-0.415 0.927,-0.927 v -34.541 c 0,-0.511 -0.415,-0.926 -0.927,-0.926 -0.512,0 -0.928,0.415 -0.928,0.926 z M 10.793,-58.682 c 0,0.512 0.415,0.928 0.927,0.928 0.512,0 0.928,-0.416 0.928,-0.928 v -42.391 c 0,-0.511 -0.416,-0.926 -0.928,-0.926 -0.512,0 -0.927,0.415 -0.927,0.926 z m -8.635,-256.7 c 0,0.514 0.415,0.928 0.927,0.928 0.512,0 0.928,-0.414 0.928,-0.928 v -40.819 c 0,-0.511 -0.416,-0.928 -0.928,-0.928 -0.512,0 -0.927,0.417 -0.927,0.928 z m 34.536,76.933 c 0,0.511 0.415,0.928 0.927,0.928 0.512,0 0.927,-0.417 0.927,-0.928 v -41.42 c 0,-0.514 -0.415,-0.928 -0.927,-0.928 -0.512,0 -0.927,0.414 -0.927,0.928 z m -21.976,89.491 c 0,0.513 0.416,0.928 0.927,0.928 0.512,0 0.928,-0.415 0.928,-0.928 v -42.004 c 0,-0.513 -0.416,-0.928 -0.928,-0.928 -0.511,0 -0.927,0.415 -0.927,0.928 z m 21.196,-4.71 c 0,0.512 0.415,0.927 0.927,0.927 0.511,0 0.927,-0.415 0.927,-0.927 v -22.183 c 0,-0.512 -0.416,-0.927 -0.927,-0.927 -0.512,0 -0.927,0.415 -0.927,0.927 z m 23.55,-127.957 c 0,0.511 0.415,0.928 0.927,0.928 0.512,0 0.927,-0.417 0.927,-0.928 v -46.917 c 0,-0.511 -0.415,-0.925 -0.927,-0.925 -0.512,0 -0.927,0.414 -0.927,0.925 z m 32.97,35.325 c 0,0.512 0.416,0.928 0.927,0.928 0.513,0 0.928,-0.416 0.928,-0.928 v -39.25 c 0,-0.512 -0.415,-0.928 -0.928,-0.928 -0.511,0 -0.927,0.416 -0.927,0.928 z m 65.941,-101.266 c 0,0.51 0.415,0.927 0.928,0.927 0.512,0 0.927,-0.417 0.927,-0.927 v -33.757 c 0,-0.511 -0.415,-0.925 -0.927,-0.925 -0.513,0 -0.928,0.414 -0.928,0.925 z m 80.071,43.175 c 0,0.511 0.417,0.928 0.928,0.928 0.511,0 0.928,-0.417 0.928,-0.928 v -39.251 c 0,-0.51 -0.417,-0.927 -0.928,-0.927 -0.511,0 -0.928,0.417 -0.928,0.927 z m -51.81,3.925 c 0,0.511 0.415,0.928 0.927,0.928 0.512,0 0.928,-0.417 0.928,-0.928 v -47.886 c 0,-0.51 -0.416,-0.926 -0.928,-0.926 -0.512,0 -0.927,0.416 -0.927,0.926 z m 35.325,112.257 c 0,0.512 0.416,0.928 0.928,0.928 0.512,0 0.927,-0.416 0.927,-0.928 v -40.037 c 0,-0.511 -0.415,-0.925 -0.927,-0.925 -0.512,0 -0.928,0.414 -0.928,0.925 z m -44.165,-1.185 c 0,0.513 0.415,0.928 0.927,0.928 0.513,0 0.928,-0.415 0.928,-0.928 v -44.346 c 0,-0.511 -0.415,-0.927 -0.928,-0.927 -0.512,0 -0.927,0.416 -0.927,0.927 z m -4.505,172.318 c 0,0.512 0.415,0.928 0.927,0.928 0.512,0 0.927,-0.416 0.927,-0.928 v -38.466 c 0,-0.511 -0.415,-0.927 -0.927,-0.927 -0.512,0 -0.927,0.416 -0.927,0.927 z m -16.49,-87.136 c 0,0.511 0.415,0.926 0.927,0.926 0.512,0 0.927,-0.415 0.927,-0.926 v -54.167 c 0,-0.511 -0.415,-0.926 -0.927,-0.926 -0.512,0 -0.927,0.415 -0.927,0.926 z M 427.636,66.92 c 0,0.513 0.414,0.928 0.928,0.928 0.511,0 0.925,-0.415 0.925,-0.928 V 30.024 c 0,-0.511 -0.414,-0.926 -0.925,-0.926 -0.514,0 -0.928,0.415 -0.928,0.926 z M 543.032,26.885 c 0,0.512 0.417,0.927 0.927,0.927 0.511,0 0.928,-0.415 0.928,-0.927 v -41.612 c 0,-0.512 -0.417,-0.927 -0.928,-0.927 -0.51,0 -0.927,0.415 -0.927,0.927 z m 1.571,-112.258 c 0,0.513 0.414,0.928 0.926,0.928 0.513,0 0.926,-0.415 0.926,-0.928 v -46.314 c 0,-0.513 -0.413,-0.928 -0.926,-0.928 -0.512,0 -0.926,0.415 -0.926,0.928 z m -52.597,-47.101 c 0,0.513 0.416,0.928 0.927,0.928 0.512,0 0.928,-0.415 0.928,-0.928 v -70.65 c 0,-0.511 -0.416,-0.928 -0.928,-0.928 -0.511,0 -0.927,0.417 -0.927,0.928 z m 41.607,-65.156 c 0,0.514 0.414,0.928 0.928,0.928 0.51,0 0.927,-0.414 0.927,-0.928 v -47.1 c 0,-0.511 -0.417,-0.928 -0.927,-0.928 -0.514,0 -0.928,0.417 -0.928,0.928 z m -44.747,-74.576 c 0,0.514 0.416,0.928 0.927,0.928 0.513,0 0.927,-0.414 0.927,-0.928 v -65.154 c 0,-0.514 -0.414,-0.928 -0.927,-0.928 -0.511,0 -0.927,0.414 -0.927,0.928 z M 360.91,-331.082 c 0,0.514 0.415,0.928 0.926,0.928 0.512,0 0.927,-0.414 0.927,-0.928 v -29.829 c 0,-0.514 -0.415,-0.928 -0.927,-0.928 -0.511,0 -0.926,0.414 -0.926,0.928 z m 43.175,-15.7 c 0,0.511 0.414,0.928 0.928,0.928 0.511,0 0.925,-0.417 0.925,-0.928 v -34.541 c 0,-0.511 -0.414,-0.925 -0.925,-0.925 -0.514,0 -0.928,0.414 -0.928,0.925 z m 49.35,107.541 c 0,0.513 0.416,0.928 0.928,0.928 0.51,0 0.927,-0.415 0.927,-0.928 v -69.86 c 0,-0.51 -0.417,-0.927 -0.927,-0.927 -0.512,0 -0.928,0.417 -0.928,0.927 z m -44.06,-29.824 c 0,0.51 0.414,0.927 0.928,0.927 0.511,0 0.925,-0.417 0.925,-0.927 v -47.101 c 0,-0.511 -0.414,-0.928 -0.925,-0.928 -0.514,0 -0.928,0.417 -0.928,0.928 z m -120.687,3.14 c 0,0.511 0.415,0.928 0.928,0.928 0.51,0 0.926,-0.417 0.926,-0.928 v -47.1 c 0,-0.512 -0.416,-0.928 -0.926,-0.928 -0.513,0 -0.928,0.416 -0.928,0.928 z m 44.746,82.426 c 0,0.513 0.415,0.928 0.927,0.928 0.511,0 0.927,-0.415 0.927,-0.928 v -38.466 c 0,-0.511 -0.416,-0.928 -0.927,-0.928 -0.512,0 -0.927,0.417 -0.927,0.928 z m -20.411,37.682 c 0,0.51 0.416,0.925 0.928,0.925 0.511,0 0.926,-0.415 0.926,-0.925 v -69.082 c 0,-0.511 -0.415,-0.927 -0.926,-0.927 -0.512,0 -0.928,0.416 -0.928,0.927 z m -55.94,-26.305 c 0,0.512 0.415,0.927 0.927,0.927 0.511,0 0.926,-0.415 0.926,-0.927 v -38.852 c 0,-0.511 -0.415,-0.927 -0.926,-0.927 -0.512,0 -0.927,0.416 -0.927,0.927 z m -124.426,-0.785 c 0,0.512 0.416,0.927 0.927,0.927 0.512,0 0.927,-0.415 0.927,-0.927 v -72.815 c 0,-0.511 -0.415,-0.927 -0.927,-0.927 -0.511,0 -0.927,0.416 -0.927,0.927 z m -60.633,67.125 c 0,0.511 0.416,0.928 0.928,0.928 0.511,0 0.926,-0.417 0.926,-0.928 v -88.712 c 0,-0.514 -0.415,-0.928 -0.926,-0.928 -0.512,0 -0.928,0.414 -0.928,0.928 z M 59.464,48.081 c 0,0.511 0.415,0.926 0.927,0.926 0.512,0 0.927,-0.415 0.927,-0.926 v -61.232 c 0,-0.512 -0.415,-0.927 -0.927,-0.927 -0.512,0 -0.927,0.415 -0.927,0.927 z m 117.555,84.884 c 0,0.511 0.415,0.927 0.927,0.927 0.512,0 0.927,-0.416 0.927,-0.927 V 79.481 c 0,-0.512 -0.415,-0.928 -0.927,-0.928 -0.512,0 -0.927,0.416 -0.927,0.928 z m 154.06,4.607 c 0,0.511 0.416,0.927 0.926,0.927 0.513,0 0.928,-0.416 0.928,-0.927 V 73.198 c 0,-0.512 -0.415,-0.927 -0.928,-0.927 -0.51,0 -0.926,0.415 -0.926,0.927 z M 499.072,99.891 c 0,0.511 0.414,0.927 0.927,0.927 0.511,0 0.925,-0.416 0.925,-0.927 V 13.54 c 0,-0.513 -0.414,-0.928 -0.925,-0.928 -0.513,0 -0.927,0.415 -0.927,0.928 z m 1.568,-116.182 c 0,0.512 0.417,0.927 0.928,0.927 0.512,0 0.928,-0.415 0.928,-0.927 v -75.361 c 0,-0.513 -0.416,-0.927 -0.928,-0.927 -0.511,0 -0.928,0.414 -0.928,0.927 z m -102.051,7.85 c 0,0.512 0.416,0.927 0.927,0.927 0.512,0 0.928,-0.415 0.928,-0.927 v -36.111 c 0,-0.512 -0.416,-0.927 -0.928,-0.927 -0.511,0 -0.927,0.415 -0.927,0.927 z M 364.83,-75.173 c 0,0.513 0.415,0.926 0.926,0.926 0.513,0 0.928,-0.413 0.928,-0.926 v -69.86 c 0,-0.512 -0.415,-0.928 -0.928,-0.928 -0.511,0 -0.926,0.416 -0.926,0.928 z M 455.112,41.8 c 0,0.512 0.413,0.928 0.925,0.928 0.513,0 0.927,-0.416 0.927,-0.928 v -211.953 c 0,-0.512 -0.414,-0.927 -0.927,-0.927 -0.512,0 -0.925,0.415 -0.925,0.927 z M 305.956,24.53 c 0,0.512 0.417,0.927 0.928,0.927 0.513,0 0.928,-0.415 0.928,-0.927 v -43.961 c 0,-0.511 -0.415,-0.927 -0.928,-0.927 -0.511,0 -0.928,0.416 -0.928,0.927 z m -45.528,21.98 c 0,0.512 0.415,0.927 0.927,0.927 0.512,0 0.927,-0.415 0.927,-0.927 v -152.272 c 0,-0.513 -0.415,-0.928 -0.927,-0.928 -0.512,0 -0.927,0.415 -0.927,0.928 z M 230.597,10.399 c 0,0.512 0.415,0.928 0.927,0.928 0.512,0 0.927,-0.416 0.927,-0.928 v -39.25 c 0,-0.512 -0.415,-0.927 -0.927,-0.927 -0.512,0 -0.927,0.415 -0.927,0.927 z m -94.202,7.85 c 0,0.513 0.415,0.928 0.927,0.928 0.512,0 0.927,-0.415 0.927,-0.928 V -83.809 c 0,-0.511 -0.415,-0.926 -0.927,-0.926 -0.512,0 -0.927,0.415 -0.927,0.926 z M 13.877,97.097 c 0,0.512 0.416,0.927 0.928,0.927 0.512,0 0.927,-0.415 0.927,-0.927 V 0.979 c 0,-0.512 -0.415,-0.927 -0.927,-0.927 -0.512,0 -0.928,0.415 -0.928,0.927 z"
             style="fill:#bed3e6;fill-opacity:1;fill-rule:evenodd;stroke:none"
             id="path43585" />
        </g>
      </g>
    </g>
  </g>
</svg>
